<svg width="118" height="433" viewBox="0 0 118 433" fill="none" xmlns="http://www.w3.org/2000/svg">
<path d="M25.135 335.203C25.135 335.203 7.65731 315.496 7.65731 301.311C7.65731 289.476 15.6971 281.521 25.135 281.521C34.573 281.521 42.6128 289.476 42.6128 301.311C42.6128 315.496 25.135 335.203 25.135 335.203Z" fill="#D9043D"/>
<path d="M60.0906 380.146L43.8733 367.753L43.8733 342.969L60.0906 330.576L76.308 342.969L76.308 367.753L60.0906 380.146Z" fill="#8DBF21"/>
<path d="M87.6558 373.79L101.52 379.758L97.1482 416.012L60.9137 411.484L58.4766 396.587L87.6558 373.79Z" fill="#020540"/>
<path d="M87.9634 338.257L101.828 332.289L97.4558 296.035L61.2213 300.563L58.7842 315.46L87.9634 338.257Z" fill="#020540"/>
<path d="M25.1351 98.0054C25.1351 98.0054 42.6129 117.712 42.6129 131.897C42.6129 143.732 34.5731 151.687 25.1351 151.687C15.6972 151.687 7.65736 143.732 7.65735 131.897C7.65735 117.712 25.1351 98.0054 25.1351 98.0054Z" fill="#D9043D"/>
<path d="M60.0906 101.75L43.8733 89.3579L43.8733 64.5733L60.0906 52.181L76.308 64.5733L76.308 89.3579L60.0906 101.75Z" fill="#8DBF21"/>
<path d="M87.6558 94.7425L101.52 100.711L97.1482 136.965L60.9137 132.436L58.4766 117.54L87.6558 94.7425Z" fill="#020540"/>
<path d="M87.9634 59.2101L101.828 53.2416L97.4558 16.9879L61.2213 21.5161L58.7842 36.4128L87.9634 59.2101Z" fill="#020540"/>
<path d="M46.3581 216.604C46.3581 216.604 66.5235 199.127 81.0383 199.127C93.1481 199.127 101.288 207.166 101.288 216.604C101.288 226.042 93.1481 234.082 81.0383 234.082C66.5235 234.082 46.3581 216.604 46.3581 216.604Z" fill="#D9043D"/>
<path d="M50.1033 249.687L37.711 265.364L12.9264 265.364L0.534052 249.687L12.9264 234.01L37.711 234.01L50.1033 249.687Z" fill="#8DBF21"/>
<path d="M50.1033 182.897L37.711 199.114L12.9264 199.114L0.534052 182.897L12.9264 166.679L37.711 166.679L50.1033 182.897Z" fill="#8DBF21"/>
<path d="M43.3789 155.641L49.3474 141.777L85.6011 146.149L81.0728 182.383L66.1762 184.82L43.3789 155.641Z" fill="#020540"/>
<path d="M42.9552 278.12L48.9238 291.984L85.1774 287.612L80.6492 251.377L65.7525 248.94L42.9552 278.12Z" fill="#020540"/>
<circle cx="7.49047" cy="7.49047" r="7.49047" transform="matrix(1 8.74228e-08 8.74228e-08 -1 17.6446 362.856)" fill="#8DBF21"/>
<ellipse cx="7.49047" cy="7.49047" rx="7.49047" ry="7.49047" transform="matrix(1 8.74228e-08 8.74228e-08 -1 17.6446 85.7083)" fill="#8DBF21"/>
<circle cx="7.49047" cy="7.49047" r="7.49047" transform="matrix(-1.31134e-07 1 1 1.31134e-07 17.6446 209.301)" fill="#8DBF21"/>
</svg>
