<svg width="118" height="433" viewBox="0 0 118 433" fill="none" xmlns="http://www.w3.org/2000/svg">
<path d="M92.8649 335.203C92.8649 335.203 110.343 315.496 110.343 301.311C110.343 289.476 102.303 281.521 92.8649 281.521C83.4269 281.521 75.3871 289.476 75.3871 301.311C75.3871 315.496 92.8649 335.203 92.8649 335.203Z" fill="#D9043D"/>
<path d="M57.9093 380.146L74.1266 367.753L74.1266 342.969L57.9093 330.576L41.692 342.969L41.692 367.753L57.9093 380.146Z" fill="#8DBF21"/>
<path d="M30.3441 373.79L16.4795 379.758L20.8516 416.012L57.0862 411.484L59.5232 396.587L30.3441 373.79Z" fill="#020540"/>
<path d="M30.0365 338.257L16.172 332.289L20.5441 296.035L56.7786 300.563L59.2157 315.46L30.0365 338.257Z" fill="#020540"/>
<circle cx="7.49047" cy="7.49047" r="7.49047" transform="matrix(1 8.74228e-08 8.74228e-08 -1 85.3743 362.668)" fill="#8DBF21"/>
<path d="M92.8648 98.0054C92.8648 98.0054 75.3871 117.712 75.3871 131.897C75.3871 143.732 83.4268 151.687 92.8648 151.687C102.303 151.687 110.343 143.732 110.343 131.897C110.343 117.712 92.8648 98.0054 92.8648 98.0054Z" fill="#D9043D"/>
<path d="M57.9093 101.75L74.1266 89.3579L74.1266 64.5733L57.9093 52.181L41.692 64.5733L41.692 89.3579L57.9093 101.75Z" fill="#8DBF21"/>
<path d="M30.3441 94.7425L16.4795 100.711L20.8516 136.965L57.0862 132.436L59.5232 117.54L30.3441 94.7425Z" fill="#020540"/>
<path d="M30.0365 59.2091L16.172 53.2406L20.5441 16.9869L56.7786 21.5152L59.2157 36.4118L30.0365 59.2091Z" fill="#020540"/>
<ellipse cx="7.49047" cy="7.49047" rx="7.49047" ry="7.49047" transform="matrix(1 8.74228e-08 8.74228e-08 -1 85.3743 85.5205)" fill="#8DBF21"/>
<path d="M71.6418 216.604C71.6418 216.604 51.4765 199.127 36.9616 199.127C24.8519 199.127 16.7117 207.166 16.7117 216.604C16.7117 226.042 24.8518 234.082 36.9616 234.082C51.4765 234.082 71.6418 216.604 71.6418 216.604Z" fill="#D9043D"/>
<path d="M67.8966 249.687L80.2889 265.364L105.074 265.364L117.466 249.687L105.074 234.01L80.2889 234.01L67.8966 249.687Z" fill="#8DBF21"/>
<path d="M67.8966 182.897L80.2889 199.114L105.074 199.114L117.466 182.897L105.074 166.679L80.2889 166.679L67.8966 182.897Z" fill="#8DBF21"/>
<path d="M74.6211 155.641L68.6526 141.777L32.3989 146.149L36.9271 182.383L51.8238 184.82L74.6211 155.641Z" fill="#020540"/>
<path d="M75.0447 278.12L69.0762 291.984L32.8225 287.612L37.3507 251.377L52.2474 248.94L75.0447 278.12Z" fill="#020540"/>
<circle cx="7.49047" cy="7.49047" r="7.49047" transform="matrix(-1.31134e-07 1 1 1.31134e-07 85.3743 209.114)" fill="#8DBF21"/>
</svg>
