<svg width="257" height="41" viewBox="0 0 257 41" fill="none" xmlns="http://www.w3.org/2000/svg">
<path d="M6.02983 1.36364L15.9482 30.3878H16.3484L26.2667 1.36364H32.0785L19.2543 37H13.0423L0.21804 1.36364H6.02983ZM48.5866 37.5394C45.9533 37.5394 43.6854 36.9768 41.7829 35.8516C39.8921 34.7147 38.4304 33.1197 37.398 31.0664C36.3772 29.0015 35.8668 26.5829 35.8668 23.8104C35.8668 21.0727 36.3772 18.6598 37.398 16.5717C38.4304 14.4837 39.8689 12.8538 41.7133 11.6822C43.5694 10.5105 45.7387 9.92472 48.2212 9.92472C49.7292 9.92472 51.1909 10.1741 52.6061 10.6729C54.0213 11.1718 55.2916 11.9548 56.4168 13.022C57.5421 14.0893 58.4295 15.4755 59.0791 17.1808C59.7287 18.8744 60.0535 20.9335 60.0535 23.358V25.2024H38.8075V21.3047H54.9552C54.9552 19.9358 54.6768 18.7236 54.12 17.668C53.5631 16.6007 52.7801 15.7597 51.7709 15.1449C50.7732 14.5301 49.6016 14.2227 48.256 14.2227C46.7943 14.2227 45.5183 14.5823 44.4278 15.3015C43.349 16.0091 42.5138 16.9371 41.9222 18.0856C41.3421 19.2224 41.0521 20.4579 41.0521 21.7919V24.837C41.0521 26.6235 41.3653 28.1431 41.9918 29.396C42.6298 30.6488 43.5172 31.6058 44.654 32.267C45.7909 32.9167 47.1191 33.2415 48.6388 33.2415C49.6248 33.2415 50.5238 33.1023 51.3359 32.8239C52.1479 32.5339 52.8497 32.1046 53.4413 31.5362C54.033 30.9678 54.4854 30.266 54.7986 29.4308L59.7229 30.3182C59.3285 31.7682 58.6209 33.0385 57.6001 34.1289C56.5908 35.2077 55.3206 36.0488 53.7893 36.652C52.2697 37.2436 50.5354 37.5394 48.5866 37.5394ZM68.7662 37V10.2727H73.7949V14.5185H74.0734C74.5606 13.08 75.419 11.949 76.6486 11.1254C77.8899 10.2901 79.2935 9.87251 80.8596 9.87251C81.1844 9.87251 81.5672 9.88411 82.008 9.90732C82.4604 9.93051 82.8142 9.95952 83.0695 9.99432V14.9709C82.8606 14.9129 82.4894 14.8491 81.9558 14.7795C81.4222 14.6983 80.8886 14.6577 80.355 14.6577C79.1253 14.6577 78.0291 14.9187 77.0663 15.4407C76.115 15.9511 75.361 16.6645 74.8042 17.581C74.2474 18.4858 73.969 19.5182 73.969 20.6783V37H68.7662ZM99.5601 37.522C97.4025 37.522 95.4768 36.971 93.7832 35.869C92.1011 34.7553 90.7787 33.1719 89.8158 31.1186C88.8646 29.0537 88.389 26.5771 88.389 23.6886C88.389 20.8001 88.8704 18.3292 89.8332 16.2759C90.8077 14.2227 92.1417 12.6508 93.8354 11.5604C95.529 10.4699 97.4489 9.92472 99.5949 9.92472C101.254 9.92472 102.588 10.2031 103.597 10.7599C104.618 11.3052 105.407 11.9432 105.964 12.674C106.532 13.4048 106.973 14.0487 107.286 14.6055H107.599V1.36364H112.802V37H107.721V32.8413H107.286C106.973 33.4097 106.52 34.0593 105.929 34.7901C105.349 35.521 104.548 36.159 103.527 36.7042C102.507 37.2494 101.184 37.522 99.5601 37.522ZM100.709 33.0849C102.205 33.0849 103.469 32.6905 104.502 31.9016C105.546 31.1012 106.335 29.9934 106.868 28.5781C107.414 27.1629 107.686 25.5156 107.686 23.6364C107.686 21.7803 107.419 20.1562 106.886 18.7642C106.352 17.3722 105.569 16.2875 104.537 15.5103C103.504 14.7331 102.228 14.3445 100.709 14.3445C99.1425 14.3445 97.8375 14.7505 96.7935 15.5625C95.7494 16.3745 94.9606 17.4824 94.427 18.886C93.905 20.2897 93.644 21.8731 93.644 23.6364C93.644 25.4228 93.9108 27.0295 94.4444 28.4563C94.978 29.8832 95.7668 31.0142 96.8109 31.8494C97.8665 32.6731 99.1657 33.0849 100.709 33.0849ZM134.687 37.5394C132.054 37.5394 129.786 36.9768 127.883 35.8516C125.992 34.7147 124.531 33.1197 123.498 31.0664C122.477 29.0015 121.967 26.5829 121.967 23.8104C121.967 21.0727 122.477 18.6598 123.498 16.5717C124.531 14.4837 125.969 12.8538 127.814 11.6822C129.67 10.5105 131.839 9.92472 134.321 9.92472C135.829 9.92472 137.291 10.1741 138.706 10.6729C140.122 11.1718 141.392 11.9548 142.517 13.022C143.642 14.0893 144.53 15.4755 145.179 17.1808C145.829 18.8744 146.154 20.9335 146.154 23.358V25.2024H124.908V21.3047H141.055C141.055 19.9358 140.777 18.7236 140.22 17.668C139.663 16.6007 138.88 15.7597 137.871 15.1449C136.874 14.5301 135.702 14.2227 134.356 14.2227C132.895 14.2227 131.619 14.5823 130.528 15.3015C129.449 16.0091 128.614 16.9371 128.022 18.0856C127.442 19.2224 127.152 20.4579 127.152 21.7919V24.837C127.152 26.6235 127.466 28.1431 128.092 29.396C128.73 30.6488 129.617 31.6058 130.754 32.267C131.891 32.9167 133.219 33.2415 134.739 33.2415C135.725 33.2415 136.624 33.1023 137.436 32.8239C138.248 32.5339 138.95 32.1046 139.542 31.5362C140.133 30.9678 140.586 30.266 140.899 29.4308L145.823 30.3182C145.429 31.7682 144.721 33.0385 143.7 34.1289C142.691 35.2077 141.421 36.0488 139.89 36.652C138.37 37.2436 136.636 37.5394 134.687 37.5394ZM155.284 37V1.36364H168.334C170.863 1.36364 172.957 1.78125 174.616 2.61648C176.275 3.4401 177.516 4.55954 178.34 5.97479C179.163 7.37843 179.575 8.96188 179.575 10.7251C179.575 12.21 179.303 13.4628 178.757 14.4837C178.212 15.4929 177.481 16.3049 176.565 16.9197C175.66 17.523 174.663 17.9638 173.572 18.2422V18.5902C174.755 18.6482 175.91 19.031 177.035 19.7386C178.172 20.4347 179.111 21.4265 179.854 22.7141C180.596 24.0018 180.967 25.5678 180.967 27.4123C180.967 29.2335 180.538 30.8692 179.68 32.3192C178.833 33.7577 177.522 34.9003 175.747 35.7472C173.972 36.5824 171.704 37 168.944 37H155.284ZM160.661 32.3888H168.421C170.997 32.3888 172.841 31.89 173.955 30.8924C175.069 29.8948 175.625 28.6477 175.625 27.1513C175.625 26.026 175.341 24.9936 174.773 24.054C174.204 23.1143 173.392 22.3661 172.337 21.8093C171.293 21.2525 170.051 20.9741 168.613 20.9741H160.661V32.3888ZM160.661 16.7805H167.865C169.071 16.7805 170.156 16.5485 171.119 16.0845C172.093 15.6205 172.864 14.9709 173.433 14.1357C174.013 13.2888 174.303 12.2912 174.303 11.1428C174.303 9.66951 173.787 8.43407 172.754 7.43643C171.722 6.4388 170.138 5.93998 168.004 5.93998H160.661V16.7805ZM193.295 37H187.588L200.412 1.36364H206.624L219.448 37H213.741L203.666 7.83665H203.387L193.295 37ZM194.252 23.0447H212.766V27.5689H194.252V23.0447ZM238.962 25.446H244.252L247.976 30.3008L249.733 32.4585L255.667 40.2017H250.168L246.201 35.0337L244.843 33.1545L238.962 25.446ZM256.815 19.1818C256.815 22.9867 256.119 26.258 254.727 28.9957C253.335 31.7218 251.427 33.8215 249.002 35.2947C246.589 36.7564 243.846 37.4872 240.772 37.4872C237.686 37.4872 234.931 36.7564 232.506 35.2947C230.094 33.8215 228.191 31.716 226.799 28.9783C225.407 26.2406 224.711 22.9751 224.711 19.1818C224.711 15.3769 225.407 12.1114 226.799 9.3853C228.191 6.64761 230.094 4.54794 232.506 3.08629C234.931 1.61304 237.686 0.876419 240.772 0.876419C243.846 0.876419 246.589 1.61304 249.002 3.08629C251.427 4.54794 253.335 6.64761 254.727 9.3853C256.119 12.1114 256.815 15.3769 256.815 19.1818ZM251.49 19.1818C251.49 16.2817 251.021 13.8398 250.081 11.8562C249.153 9.86091 247.877 8.35286 246.253 7.33203C244.64 6.2996 242.813 5.78338 240.772 5.78338C238.718 5.78338 236.886 6.2996 235.273 7.33203C233.661 8.35286 232.385 9.86091 231.445 11.8562C230.517 13.8398 230.053 16.2817 230.053 19.1818C230.053 22.0819 230.517 24.5296 231.445 26.5249C232.385 28.5085 233.661 30.0166 235.273 31.049C236.886 32.0698 238.718 32.5803 240.772 32.5803C242.813 32.5803 244.64 32.0698 246.253 31.049C247.877 30.0166 249.153 28.5085 250.081 26.5249C251.021 24.5296 251.49 22.0819 251.49 19.1818Z" fill="url(#paint0_diamond_178_36629)"/>
<defs>
<radialGradient id="paint0_diamond_178_36629" cx="0" cy="0" r="1" gradientUnits="userSpaceOnUse" gradientTransform="translate(13.7736 44.8125) scale(183.849 217.035)">
<stop stop-color="#D9043D"/>
<stop offset="0.502977" stop-color="#8DBF21"/>
<stop offset="1" stop-color="#F2B705"/>
</radialGradient>
</defs>
</svg>
