<svg width="214" height="82" viewBox="0 0 214 82" fill="none" xmlns="http://www.w3.org/2000/svg">
<path d="M5.73864 25.9091L13.8352 49.6023H14.1619L22.2585 25.9091H27.0028L16.5341 55H11.4631L0.994318 25.9091H5.73864ZM40.4788 55.4403C38.3292 55.4403 36.4779 54.9811 34.9249 54.0625C33.3813 53.1345 32.1881 51.8324 31.3453 50.1562C30.512 48.4706 30.0953 46.4962 30.0953 44.233C30.0953 41.9981 30.512 40.0284 31.3453 38.3239C32.1881 36.6193 33.3624 35.2888 34.868 34.3324C36.3832 33.3759 38.154 32.8977 40.1805 32.8977C41.4116 32.8977 42.6048 33.1013 43.7601 33.5085C44.9154 33.9157 45.9523 34.5549 46.8709 35.4261C47.7894 36.2973 48.5139 37.429 49.0442 38.821C49.5745 40.2036 49.8396 41.8845 49.8396 43.8636V45.3693H32.4959V42.1875H45.6777C45.6777 41.0701 45.4504 40.0805 44.9959 39.2188C44.5413 38.3475 43.9021 37.661 43.0783 37.1591C42.2639 36.6572 41.3074 36.4062 40.2089 36.4062C39.0158 36.4062 37.9741 36.6998 37.0839 37.2869C36.2033 37.8646 35.5214 38.6222 35.0385 39.5597C34.565 40.4877 34.3283 41.4962 34.3283 42.5852V45.071C34.3283 46.5294 34.5839 47.7699 35.0953 48.7926C35.6161 49.8153 36.3406 50.5966 37.2686 51.1364C38.1966 51.6667 39.2809 51.9318 40.5214 51.9318C41.3264 51.9318 42.0603 51.8182 42.7232 51.5909C43.386 51.3542 43.9589 51.0038 44.4419 50.5398C44.9249 50.0758 45.2942 49.5028 45.5499 48.821L49.5697 49.5455C49.2478 50.7292 48.6701 51.7661 47.8368 52.6562C47.0129 53.5369 45.976 54.2235 44.726 54.7159C43.4855 55.1989 42.0697 55.4403 40.4788 55.4403ZM56.952 55V33.1818H61.0571V36.6477H61.2844C61.6821 35.4735 62.3829 34.5502 63.3866 33.8778C64.3999 33.196 65.5457 32.8551 66.8241 32.8551C67.0893 32.8551 67.4018 32.8646 67.7616 32.8835C68.131 32.9025 68.4198 32.9261 68.6281 32.9545V37.017C68.4577 36.9697 68.1546 36.9176 67.719 36.8608C67.2834 36.7945 66.8478 36.7614 66.4122 36.7614C65.4084 36.7614 64.5135 36.9744 63.7276 37.4006C62.951 37.8172 62.3355 38.3996 61.881 39.1477C61.4264 39.8864 61.1991 40.7292 61.1991 41.6761V55H56.952ZM82.0899 55.4261C80.3285 55.4261 78.7566 54.9763 77.374 54.0767C76.0009 53.1676 74.9214 51.875 74.1354 50.1989C73.3589 48.5133 72.9706 46.4915 72.9706 44.1335C72.9706 41.7756 73.3636 39.7585 74.1496 38.0824C74.945 36.4062 76.034 35.1231 77.4166 34.233C78.7992 33.3428 80.3664 32.8977 82.1183 32.8977C83.4725 32.8977 84.5615 33.125 85.3854 33.5795C86.2187 34.0246 86.8626 34.5455 87.3172 35.142C87.7812 35.7386 88.141 36.2642 88.3967 36.7188H88.6524V25.9091H92.8996V55H88.7518V51.6051H88.3967C88.141 52.0691 87.7717 52.5994 87.2888 53.196C86.8153 53.7926 86.1619 54.3134 85.3285 54.7585C84.4952 55.2036 83.4157 55.4261 82.0899 55.4261ZM83.0274 51.804C84.249 51.804 85.2812 51.482 86.124 50.8381C86.9763 50.1847 87.6202 49.2803 88.0558 48.125C88.5009 46.9697 88.7234 45.625 88.7234 44.0909C88.7234 42.5758 88.5056 41.25 88.07 40.1136C87.6344 38.9773 86.9952 38.0919 86.1524 37.4574C85.3096 36.8229 84.2679 36.5057 83.0274 36.5057C81.749 36.5057 80.6837 36.8371 79.8314 37.5C78.9791 38.1629 78.3352 39.0672 77.8996 40.2131C77.4734 41.3589 77.2604 42.6515 77.2604 44.0909C77.2604 45.5492 77.4782 46.8608 77.9138 48.0256C78.3494 49.1903 78.9933 50.1136 79.8456 50.7955C80.7073 51.4678 81.7679 51.804 83.0274 51.804ZM110.765 55.4403C108.615 55.4403 106.764 54.9811 105.211 54.0625C103.667 53.1345 102.474 51.8324 101.631 50.1562C100.798 48.4706 100.381 46.4962 100.381 44.233C100.381 41.9981 100.798 40.0284 101.631 38.3239C102.474 36.6193 103.648 35.2888 105.154 34.3324C106.669 33.3759 108.44 32.8977 110.466 32.8977C111.698 32.8977 112.891 33.1013 114.046 33.5085C115.201 33.9157 116.238 34.5549 117.157 35.4261C118.075 36.2973 118.8 37.429 119.33 38.821C119.86 40.2036 120.126 41.8845 120.126 43.8636V45.3693H102.782V42.1875H115.964C115.964 41.0701 115.736 40.0805 115.282 39.2188C114.827 38.3475 114.188 37.661 113.364 37.1591C112.55 36.6572 111.593 36.4062 110.495 36.4062C109.302 36.4062 108.26 36.6998 107.37 37.2869C106.489 37.8646 105.807 38.6222 105.324 39.5597C104.851 40.4877 104.614 41.4962 104.614 42.5852V45.071C104.614 46.5294 104.87 47.7699 105.381 48.7926C105.902 49.8153 106.627 50.5966 107.555 51.1364C108.483 51.6667 109.567 51.9318 110.807 51.9318C111.612 51.9318 112.346 51.8182 113.009 51.5909C113.672 51.3542 114.245 51.0038 114.728 50.5398C115.211 50.0758 115.58 49.5028 115.836 48.821L119.856 49.5455C119.534 50.7292 118.956 51.7661 118.123 52.6562C117.299 53.5369 116.262 54.2235 115.012 54.7159C113.771 55.1989 112.356 55.4403 110.765 55.4403ZM127.579 55V25.9091H138.232C140.297 25.9091 142.006 26.25 143.36 26.9318C144.714 27.6042 145.728 28.518 146.4 29.6733C147.072 30.8191 147.408 32.1117 147.408 33.5511C147.408 34.7633 147.186 35.786 146.741 36.6193C146.296 37.4432 145.699 38.1061 144.951 38.608C144.212 39.1004 143.398 39.4602 142.508 39.6875V39.9716C143.474 40.0189 144.416 40.3314 145.335 40.9091C146.263 41.4773 147.03 42.2869 147.636 43.3381C148.242 44.3892 148.545 45.6676 148.545 47.1733C148.545 48.66 148.194 49.9953 147.494 51.179C146.802 52.3532 145.732 53.286 144.283 53.9773C142.835 54.6591 140.983 55 138.729 55H127.579ZM131.968 51.2358H138.303C140.406 51.2358 141.911 50.8286 142.82 50.0142C143.729 49.1998 144.184 48.1818 144.184 46.9602C144.184 46.0417 143.952 45.1989 143.488 44.4318C143.024 43.6648 142.361 43.054 141.499 42.5994C140.647 42.1449 139.634 41.9176 138.46 41.9176H131.968V51.2358ZM131.968 38.4943H137.849C138.834 38.4943 139.719 38.3049 140.505 37.9261C141.3 37.5473 141.93 37.017 142.394 36.3352C142.868 35.6439 143.104 34.8295 143.104 33.892C143.104 32.6894 142.683 31.6809 141.84 30.8665C140.997 30.0521 139.705 29.6449 137.962 29.6449H131.968V38.4943ZM158.608 55H153.949L164.418 25.9091H169.489L179.958 55H175.298L167.074 31.1932H166.847L158.608 55ZM159.389 43.608H174.503V47.3011H159.389V43.608ZM195.887 45.5682H200.206L203.245 49.5312L204.68 51.2926L209.524 57.6136H205.035L201.796 53.3949L200.688 51.8608L195.887 45.5682ZM210.461 40.4545C210.461 43.5606 209.893 46.2311 208.757 48.4659C207.62 50.6913 206.063 52.4053 204.083 53.608C202.114 54.8011 199.874 55.3977 197.365 55.3977C194.846 55.3977 192.597 54.8011 190.617 53.608C188.648 52.4053 187.095 50.6866 185.958 48.4517C184.822 46.2169 184.254 43.5511 184.254 40.4545C184.254 37.3485 184.822 34.6828 185.958 32.4574C187.095 30.2225 188.648 28.5085 190.617 27.3153C192.597 26.1127 194.846 25.5114 197.365 25.5114C199.874 25.5114 202.114 26.1127 204.083 27.3153C206.063 28.5085 207.62 30.2225 208.757 32.4574C209.893 34.6828 210.461 37.3485 210.461 40.4545ZM206.115 40.4545C206.115 38.0871 205.731 36.0937 204.964 34.4744C204.206 32.8456 203.165 31.6146 201.839 30.7812C200.523 29.9384 199.031 29.517 197.365 29.517C195.688 29.517 194.192 29.9384 192.876 30.7812C191.56 31.6146 190.518 32.8456 189.751 34.4744C188.993 36.0937 188.615 38.0871 188.615 40.4545C188.615 42.822 188.993 44.8201 189.751 46.4489C190.518 48.0682 191.56 49.2992 192.876 50.142C194.192 50.9754 195.688 51.392 197.365 51.392C199.031 51.392 200.523 50.9754 201.839 50.142C203.165 49.2992 204.206 48.0682 204.964 46.4489C205.731 44.8201 206.115 42.822 206.115 40.4545Z" fill="url(#paint0_diamond_180_36635)"/>
<path d="M22.1586 78V67.4545H28.7701V68.8242H23.7496V72.0373H28.4251V73.4018H23.7496V76.6303H28.8319V78H22.1586ZM32.712 70.0909L34.4576 73.1701L36.2186 70.0909H37.9023L35.4359 74.0455L37.9229 78H36.2392L34.4576 75.0444L32.6811 78H30.9922L33.4535 74.0455L31.0231 70.0909H32.712ZM40.2081 80.9659V70.0909H41.7117V71.373H41.8404C41.9297 71.2083 42.0584 71.0178 42.2266 70.8015C42.3948 70.5852 42.6282 70.3964 42.9269 70.2351C43.2255 70.0703 43.6203 69.9879 44.1112 69.9879C44.7497 69.9879 45.3195 70.1493 45.8207 70.4719C46.3219 70.7946 46.7149 71.2598 46.9999 71.8674C47.2882 72.475 47.4324 73.2061 47.4324 74.0609C47.4324 74.9157 47.2899 75.6486 47.005 76.2596C46.7201 76.8672 46.3287 77.3358 45.831 77.6653C45.3332 77.9914 44.7651 78.1545 44.1266 78.1545C43.646 78.1545 43.253 78.0738 42.9475 77.9125C42.6454 77.7511 42.4085 77.5623 42.2369 77.3461C42.0653 77.1298 41.9331 76.9376 41.8404 76.7694H41.7477V80.9659H40.2081ZM41.7168 74.0455C41.7168 74.6016 41.7975 75.089 41.9588 75.5078C42.1202 75.9266 42.3536 76.2544 42.6591 76.4913C42.9646 76.7247 43.3388 76.8414 43.7816 76.8414C44.2416 76.8414 44.6261 76.7196 44.935 76.4759C45.244 76.2287 45.4774 75.894 45.6353 75.4718C45.7967 75.0495 45.8773 74.5741 45.8773 74.0455C45.8773 73.5237 45.7984 73.0551 45.6405 72.6397C45.486 72.2244 45.2526 71.8965 44.9402 71.6562C44.6312 71.416 44.2451 71.2958 43.7816 71.2958C43.3354 71.2958 42.9578 71.4108 42.6488 71.6408C42.3433 71.8708 42.1116 72.1918 41.9537 72.6037C41.7958 73.0156 41.7168 73.4962 41.7168 74.0455ZM51.4219 67.4545V78H49.8823V67.4545H51.4219ZM57.5497 78.1596C56.8082 78.1596 56.1611 77.9897 55.6085 77.6499C55.0558 77.31 54.6267 76.8346 54.3212 76.2235C54.0157 75.6125 53.8629 74.8985 53.8629 74.0815C53.8629 73.2611 54.0157 72.5436 54.3212 71.9292C54.6267 71.3147 55.0558 70.8375 55.6085 70.4977C56.1611 70.1578 56.8082 69.9879 57.5497 69.9879C58.2912 69.9879 58.9382 70.1578 59.4909 70.4977C60.0436 70.8375 60.4727 71.3147 60.7782 71.9292C61.0837 72.5436 61.2365 73.2611 61.2365 74.0815C61.2365 74.8985 61.0837 75.6125 60.7782 76.2235C60.4727 76.8346 60.0436 77.31 59.4909 77.6499C58.9382 77.9897 58.2912 78.1596 57.5497 78.1596ZM57.5548 76.8672C58.0354 76.8672 58.4336 76.7402 58.7494 76.4862C59.0652 76.2321 59.2987 75.894 59.4497 75.4718C59.6042 75.0495 59.6814 74.5844 59.6814 74.0763C59.6814 73.5717 59.6042 73.1083 59.4497 72.6861C59.2987 72.2604 59.0652 71.9189 58.7494 71.6614C58.4336 71.4039 58.0354 71.2752 57.5548 71.2752C57.0708 71.2752 56.6692 71.4039 56.3499 71.6614C56.0341 71.9189 55.799 72.2604 55.6445 72.6861C55.4935 73.1083 55.4179 73.5717 55.4179 74.0763C55.4179 74.5844 55.4935 75.0495 55.6445 75.4718C55.799 75.894 56.0341 76.2321 56.3499 76.4862C56.6692 76.7402 57.0708 76.8672 57.5548 76.8672ZM63.68 78V70.0909H65.1681V71.3473H65.2505C65.3947 70.9216 65.6487 70.5869 66.0126 70.3432C66.3799 70.0961 66.7952 69.9725 67.2587 69.9725C67.3548 69.9725 67.4681 69.9759 67.5985 69.9828C67.7324 69.9896 67.8371 69.9982 67.9126 70.0085V71.4812C67.8508 71.464 67.741 71.4451 67.5831 71.4245C67.4251 71.4005 67.2672 71.3885 67.1093 71.3885C66.7455 71.3885 66.4211 71.4657 66.1361 71.6202C65.8547 71.7712 65.6315 71.9824 65.4668 72.2536C65.302 72.5213 65.2196 72.8268 65.2196 73.1701V78H63.68ZM72.2008 78.1751C71.6996 78.1751 71.2465 78.0824 70.8414 77.897C70.4364 77.7082 70.1154 77.4353 69.8785 77.0783C69.6451 76.7213 69.5284 76.2836 69.5284 75.7653C69.5284 75.319 69.6142 74.9517 69.7859 74.6634C69.9575 74.375 70.1892 74.1467 70.481 73.9785C70.7728 73.8103 71.0989 73.6833 71.4593 73.5975C71.8198 73.5117 72.1871 73.4464 72.5612 73.4018C73.035 73.3469 73.4194 73.3023 73.7147 73.2679C74.0099 73.2302 74.2244 73.1701 74.3583 73.0877C74.4922 73.0053 74.5591 72.8714 74.5591 72.6861V72.65C74.5591 72.2003 74.4321 71.8519 74.1781 71.6048C73.9275 71.3576 73.5533 71.234 73.0556 71.234C72.5372 71.234 72.1287 71.349 71.8301 71.579C71.5349 71.8056 71.3306 72.0579 71.2173 72.3359L69.7704 72.0064C69.942 71.5258 70.1926 71.1379 70.5222 70.8427C70.8552 70.544 71.2379 70.3278 71.6704 70.1939C72.103 70.0566 72.5578 69.9879 73.035 69.9879C73.3508 69.9879 73.6855 70.0257 74.0391 70.1012C74.3961 70.1733 74.729 70.3072 75.038 70.5028C75.3504 70.6985 75.6061 70.9783 75.8052 71.3422C76.0043 71.7026 76.1039 72.1712 76.1039 72.7479V78H74.6003V76.9187H74.5385C74.439 77.1178 74.2896 77.3134 74.0905 77.5057C73.8914 77.6979 73.6357 77.8575 73.3233 77.9846C73.0109 78.1116 72.6368 78.1751 72.2008 78.1751ZM72.5355 76.9393C72.9612 76.9393 73.325 76.8552 73.6271 76.687C73.9326 76.5188 74.1643 76.2991 74.3223 76.0279C74.4836 75.7533 74.5643 75.4598 74.5643 75.1474V74.1278C74.5093 74.1828 74.4029 74.2343 74.245 74.2823C74.0905 74.3269 73.9138 74.3664 73.7147 74.4007C73.5156 74.4316 73.3216 74.4608 73.1328 74.4883C72.944 74.5123 72.7861 74.5329 72.6591 74.5501C72.3604 74.5878 72.0875 74.6513 71.8404 74.7406C71.5966 74.8298 71.401 74.9586 71.2534 75.1268C71.1092 75.2915 71.0371 75.5112 71.0371 75.7859C71.0371 76.1669 71.1778 76.4553 71.4593 76.6509C71.7408 76.8432 72.0995 76.9393 72.5355 76.9393ZM80.8825 76.5582L80.8053 77.1195C80.7538 77.5314 80.6663 77.9605 80.5427 78.4068C80.4225 78.8565 80.2972 79.2736 80.1668 79.658C80.0398 80.0425 79.9351 80.348 79.8527 80.5746H78.7611C78.8057 80.3617 78.8675 80.0734 78.9464 79.7095C79.0254 79.3491 79.1026 78.9457 79.1782 78.4995C79.2537 78.0532 79.3103 77.5984 79.3481 77.1349L79.3996 76.5582H80.8825ZM89.2195 67.4545L92.1545 76.0433H92.273L95.208 67.4545H96.9278L93.1329 78H91.2946L87.4997 67.4545H89.2195ZM99.0521 78V70.0909H100.592V78H99.0521ZM99.8296 68.8706C99.5618 68.8706 99.3318 68.7813 99.1396 68.6028C98.9508 68.4209 98.8564 68.2046 98.8564 67.954C98.8564 67.7 98.9508 67.4837 99.1396 67.3052C99.3318 67.1233 99.5618 67.0323 99.8296 67.0323C100.097 67.0323 100.326 67.1233 100.514 67.3052C100.707 67.4837 100.803 67.7 100.803 67.954C100.803 68.2046 100.707 68.4209 100.514 68.6028C100.326 68.7813 100.097 68.8706 99.8296 68.8706ZM110.154 70.0909L107.286 78H105.638L102.765 70.0909H104.418L106.421 76.1772H106.503L108.501 70.0909H110.154ZM115.465 78.1596C114.686 78.1596 114.015 77.9931 113.452 77.6602C112.893 77.3237 112.46 76.8517 112.155 76.2441C111.853 75.6331 111.701 74.9174 111.701 74.0969C111.701 73.2868 111.853 72.5728 112.155 71.9549C112.46 71.337 112.886 70.8547 113.432 70.508C113.981 70.1613 114.623 69.9879 115.357 69.9879C115.804 69.9879 116.236 70.0617 116.655 70.2093C117.074 70.3569 117.45 70.5887 117.783 70.9045C118.116 71.2203 118.378 71.6305 118.57 72.1351C118.763 72.6363 118.859 73.2456 118.859 73.9631V74.5089H112.572V73.3555H117.35C117.35 72.9504 117.268 72.5917 117.103 72.2793C116.938 71.9635 116.706 71.7146 116.408 71.5327C116.113 71.3507 115.766 71.2598 115.368 71.2598C114.935 71.2598 114.558 71.3662 114.235 71.579C113.916 71.7884 113.668 72.063 113.493 72.4029C113.322 72.7393 113.236 73.1049 113.236 73.4996V74.4007C113.236 74.9294 113.329 75.3791 113.514 75.7498C113.703 76.1206 113.965 76.4038 114.302 76.5994C114.638 76.7917 115.031 76.8878 115.481 76.8878C115.773 76.8878 116.039 76.8466 116.279 76.7642C116.519 76.6784 116.727 76.5514 116.902 76.3832C117.077 76.215 117.211 76.0073 117.304 75.7601L118.761 76.0227C118.644 76.4518 118.435 76.8277 118.133 77.1504C117.834 77.4696 117.458 77.7185 117.005 77.897C116.555 78.0721 116.042 78.1596 115.465 78.1596ZM123.295 76.5582L123.218 77.1195C123.166 77.5314 123.079 77.9605 122.955 78.4068C122.835 78.8565 122.71 79.2736 122.579 79.658C122.452 80.0425 122.348 80.348 122.265 80.5746H121.174C121.218 80.3617 121.28 80.0734 121.359 79.7095C121.438 79.3491 121.515 78.9457 121.591 78.4995C121.666 78.0532 121.723 77.5984 121.761 77.1349L121.812 76.5582H123.295ZM139.469 70.8839H137.862C137.801 70.5406 137.686 70.2385 137.517 69.9776C137.349 69.7167 137.143 69.4953 136.9 69.3134C136.656 69.1315 136.383 68.9941 136.081 68.9015C135.782 68.8088 135.465 68.7624 135.128 68.7624C134.521 68.7624 133.977 68.9152 133.496 69.2207C133.019 69.5262 132.641 69.9742 132.363 70.5646C132.089 71.1551 131.951 71.8759 131.951 72.7273C131.951 73.5855 132.089 74.3098 132.363 74.9002C132.641 75.4906 133.021 75.9369 133.501 76.239C133.982 76.5411 134.522 76.6921 135.123 76.6921C135.456 76.6921 135.772 76.6475 136.071 76.5582C136.373 76.4656 136.646 76.33 136.889 76.1515C137.133 75.973 137.339 75.755 137.507 75.4975C137.679 75.2366 137.797 74.938 137.862 74.6016L139.469 74.6067C139.383 75.1251 139.217 75.6022 138.97 76.0382C138.726 76.4707 138.412 76.8449 138.027 77.1607C137.646 77.4731 137.21 77.7151 136.719 77.8867C136.228 78.0584 135.693 78.1442 135.113 78.1442C134.2 78.1442 133.386 77.9279 132.672 77.4954C131.958 77.0594 131.395 76.4364 130.983 75.6262C130.575 74.8161 130.37 73.8498 130.37 72.7273C130.37 71.6013 130.576 70.635 130.988 69.8283C131.4 69.0182 131.963 68.3968 132.677 67.9643C133.391 67.5283 134.203 67.3104 135.113 67.3104C135.672 67.3104 136.194 67.391 136.678 67.5524C137.166 67.7103 137.603 67.9437 137.991 68.2527C138.379 68.5582 138.7 68.9324 138.954 69.3752C139.208 69.8146 139.38 70.3175 139.469 70.8839ZM145.306 78.1596C144.564 78.1596 143.917 77.9897 143.365 77.6499C142.812 77.31 142.383 76.8346 142.077 76.2235C141.772 75.6125 141.619 74.8985 141.619 74.0815C141.619 73.2611 141.772 72.5436 142.077 71.9292C142.383 71.3147 142.812 70.8375 143.365 70.4977C143.917 70.1578 144.564 69.9879 145.306 69.9879C146.047 69.9879 146.694 70.1578 147.247 70.4977C147.8 70.8375 148.229 71.3147 148.534 71.9292C148.84 72.5436 148.993 73.2611 148.993 74.0815C148.993 74.8985 148.84 75.6125 148.534 76.2235C148.229 76.8346 147.8 77.31 147.247 77.6499C146.694 77.9897 146.047 78.1596 145.306 78.1596ZM145.311 76.8672C145.792 76.8672 146.19 76.7402 146.506 76.4862C146.821 76.2321 147.055 75.894 147.206 75.4718C147.36 75.0495 147.438 74.5844 147.438 74.0763C147.438 73.5717 147.36 73.1083 147.206 72.6861C147.055 72.2604 146.821 71.9189 146.506 71.6614C146.19 71.4039 145.792 71.2752 145.311 71.2752C144.827 71.2752 144.425 71.4039 144.106 71.6614C143.79 71.9189 143.555 72.2604 143.401 72.6861C143.25 73.1083 143.174 73.5717 143.174 74.0763C143.174 74.5844 143.25 75.0495 143.401 75.4718C143.555 75.894 143.79 76.2321 144.106 76.4862C144.425 76.7402 144.827 76.8672 145.311 76.8672ZM152.976 73.304V78H151.436V70.0909H152.914V71.3782H153.012C153.194 70.9594 153.479 70.623 153.867 70.369C154.258 70.1149 154.75 69.9879 155.344 69.9879C155.883 69.9879 156.355 70.1012 156.76 70.3278C157.165 70.5509 157.48 70.8839 157.703 71.3267C157.926 71.7695 158.037 72.3171 158.037 72.9693V78H156.498V73.1547C156.498 72.5814 156.348 72.1334 156.05 71.8107C155.751 71.4846 155.341 71.3216 154.819 71.3216C154.462 71.3216 154.145 71.3988 153.867 71.5533C153.592 71.7077 153.374 71.9343 153.213 72.233C153.055 72.5282 152.976 72.8852 152.976 73.304ZM166.754 72.0218L165.358 72.269C165.3 72.0905 165.207 71.9206 165.08 71.7592C164.957 71.5979 164.789 71.4657 164.576 71.3627C164.363 71.2598 164.097 71.2083 163.778 71.2083C163.342 71.2083 162.978 71.3061 162.686 71.5018C162.394 71.694 162.248 71.9429 162.248 72.2484C162.248 72.5127 162.346 72.7256 162.542 72.8869C162.738 73.0482 163.053 73.1804 163.489 73.2834L164.746 73.5717C165.473 73.7399 166.016 73.9991 166.373 74.3493C166.73 74.6994 166.908 75.1542 166.908 75.7138C166.908 76.1875 166.771 76.6097 166.496 76.9805C166.225 77.3478 165.846 77.6361 165.358 77.8455C164.874 78.0549 164.313 78.1596 163.675 78.1596C162.789 78.1596 162.066 77.9708 161.507 77.5932C160.947 77.2122 160.604 76.6715 160.477 75.9712L161.965 75.7447C162.058 76.1326 162.248 76.4261 162.537 76.6252C162.825 76.8208 163.201 76.9187 163.664 76.9187C164.169 76.9187 164.572 76.814 164.874 76.6046C165.176 76.3917 165.328 76.1326 165.328 75.8271C165.328 75.5799 165.235 75.3722 165.049 75.204C164.868 75.0358 164.588 74.9088 164.21 74.823L162.871 74.5295C162.133 74.3613 161.588 74.0935 161.234 73.7262C160.884 73.3589 160.709 72.8938 160.709 72.3308C160.709 71.8639 160.839 71.4554 161.1 71.1053C161.361 70.7551 161.721 70.4822 162.181 70.2866C162.641 70.0875 163.168 69.9879 163.762 69.9879C164.617 69.9879 165.29 70.1733 165.781 70.544C166.272 70.9113 166.596 71.4039 166.754 72.0218ZM172.735 78.1596C171.956 78.1596 171.284 77.9931 170.722 77.6602C170.162 77.3237 169.729 76.8517 169.424 76.2441C169.122 75.6331 168.971 74.9174 168.971 74.0969C168.971 73.2868 169.122 72.5728 169.424 71.9549C169.729 71.337 170.155 70.8547 170.701 70.508C171.25 70.1613 171.892 69.9879 172.627 69.9879C173.073 69.9879 173.505 70.0617 173.924 70.2093C174.343 70.3569 174.719 70.5887 175.052 70.9045C175.385 71.2203 175.648 71.6305 175.84 72.1351C176.032 72.6363 176.128 73.2456 176.128 73.9631V74.5089H169.841V73.3555H174.619C174.619 72.9504 174.537 72.5917 174.372 72.2793C174.207 71.9635 173.976 71.7146 173.677 71.5327C173.382 71.3507 173.035 71.2598 172.637 71.2598C172.204 71.2598 171.827 71.3662 171.504 71.579C171.185 71.7884 170.938 72.063 170.763 72.4029C170.591 72.7393 170.505 73.1049 170.505 73.4996V74.4007C170.505 74.9294 170.598 75.3791 170.783 75.7498C170.972 76.1206 171.235 76.4038 171.571 76.5994C171.908 76.7917 172.301 76.8878 172.75 76.8878C173.042 76.8878 173.308 76.8466 173.548 76.7642C173.789 76.6784 173.996 76.5514 174.171 76.3832C174.347 76.215 174.48 76.0073 174.573 75.7601L176.03 76.0227C175.914 76.4518 175.704 76.8277 175.402 77.1504C175.103 77.4696 174.728 77.7185 174.274 77.897C173.825 78.0721 173.312 78.1596 172.735 78.1596ZM178.561 78V70.0909H180.049V71.3473H180.132C180.276 70.9216 180.53 70.5869 180.894 70.3432C181.261 70.0961 181.677 69.9725 182.14 69.9725C182.236 69.9725 182.349 69.9759 182.48 69.9828C182.614 69.9896 182.718 69.9982 182.794 70.0085V71.4812C182.732 71.464 182.622 71.4451 182.464 71.4245C182.306 71.4005 182.149 71.3885 181.991 71.3885C181.627 71.3885 181.302 71.4657 181.017 71.6202C180.736 71.7712 180.513 71.9824 180.348 72.2536C180.183 72.5213 180.101 72.8268 180.101 73.1701V78H178.561ZM191.858 70.0909L188.99 78H187.342L184.469 70.0909H186.122L188.125 76.1772H188.207L190.205 70.0909H191.858ZM197.17 78.1596C196.39 78.1596 195.719 77.9931 195.156 77.6602C194.597 77.3237 194.164 76.8517 193.859 76.2441C193.557 75.6331 193.406 74.9174 193.406 74.0969C193.406 73.2868 193.557 72.5728 193.859 71.9549C194.164 71.337 194.59 70.8547 195.136 70.508C195.685 70.1613 196.327 69.9879 197.061 69.9879C197.508 69.9879 197.94 70.0617 198.359 70.2093C198.778 70.3569 199.154 70.5887 199.487 70.9045C199.82 71.2203 200.082 71.6305 200.275 72.1351C200.467 72.6363 200.563 73.2456 200.563 73.9631V74.5089H194.276V73.3555H199.054C199.054 72.9504 198.972 72.5917 198.807 72.2793C198.642 71.9635 198.411 71.7146 198.112 71.5327C197.817 71.3507 197.47 71.2598 197.072 71.2598C196.639 71.2598 196.262 71.3662 195.939 71.579C195.62 71.7884 195.373 72.063 195.197 72.4029C195.026 72.7393 194.94 73.1049 194.94 73.4996V74.4007C194.94 74.9294 195.033 75.3791 195.218 75.7498C195.407 76.1206 195.669 76.4038 196.006 76.5994C196.342 76.7917 196.735 76.8878 197.185 76.8878C197.477 76.8878 197.743 76.8466 197.983 76.7642C198.223 76.6784 198.431 76.5514 198.606 76.3832C198.781 76.215 198.915 76.0073 199.008 75.7601L200.465 76.0227C200.348 76.4518 200.139 76.8277 199.837 77.1504C199.538 77.4696 199.162 77.7185 198.709 77.897C198.259 78.0721 197.746 78.1596 197.17 78.1596Z" fill="#020540"/>
<defs>
<radialGradient id="paint0_diamond_180_36635" cx="0" cy="0" r="1" gradientUnits="userSpaceOnUse" gradientTransform="translate(12.1132 65.8125) scale(150.742 217.035)">
<stop stop-color="#D9043D"/>
<stop offset="0.502977" stop-color="#8DBF21"/>
<stop offset="1" stop-color="#F2B705"/>
</radialGradient>
</defs>
</svg>
